<mxfile host="app.diagrams.net" agent="Mozilla/5.0 (Windows NT 10.0; Win64; x64) AppleWebKit/537.36 (KHTML, like Gecko) Chrome/127.0.0.0 Safari/537.36" version="24.8.9">
  <diagram name="第 1 页" id="U7OJd-Zlq0dJmpoC_UA9">
    <mxGraphModel dx="1434" dy="772" grid="1" gridSize="10" guides="1" tooltips="1" connect="1" arrows="1" fold="1" page="1" pageScale="1" pageWidth="827" pageHeight="1169" math="0" shadow="0">
      <root>
        <mxCell id="0" />
        <mxCell id="1" parent="0" />
        <mxCell id="vKyVgOmEa2FZxJtHk5pY-1" value="192.168.3.10" style="verticalAlign=top;verticalLabelPosition=bottom;labelPosition=center;align=center;html=1;outlineConnect=0;fillColor=#dae8fc;strokeColor=#6c8ebf;gradientDirection=north;strokeWidth=2;shape=mxgraph.networks.monitor;" vertex="1" parent="1">
          <mxGeometry x="50" y="130" width="70" height="65" as="geometry" />
        </mxCell>
        <mxCell id="vKyVgOmEa2FZxJtHk5pY-2" value="192.168.3.11" style="verticalAlign=top;verticalLabelPosition=bottom;labelPosition=center;align=center;html=1;outlineConnect=0;fillColor=#dae8fc;strokeColor=#6c8ebf;gradientDirection=north;strokeWidth=2;shape=mxgraph.networks.monitor;" vertex="1" parent="1">
          <mxGeometry x="45" y="360" width="80" height="65" as="geometry" />
        </mxCell>
        <mxCell id="vKyVgOmEa2FZxJtHk5pY-6" value="192.168.6.20" style="verticalAlign=top;verticalLabelPosition=bottom;labelPosition=center;align=center;html=1;outlineConnect=0;fillColor=#dae8fc;strokeColor=#6c8ebf;gradientDirection=north;strokeWidth=2;shape=mxgraph.networks.monitor;" vertex="1" parent="1">
          <mxGeometry x="720" y="130" width="80" height="65" as="geometry" />
        </mxCell>
        <mxCell id="vKyVgOmEa2FZxJtHk5pY-7" value="192.168.6.21" style="verticalAlign=top;verticalLabelPosition=bottom;labelPosition=center;align=center;html=1;outlineConnect=0;fillColor=#dae8fc;strokeColor=#6c8ebf;gradientDirection=north;strokeWidth=2;shape=mxgraph.networks.monitor;" vertex="1" parent="1">
          <mxGeometry x="720" y="370" width="80" height="65" as="geometry" />
        </mxCell>
        <mxCell id="vKyVgOmEa2FZxJtHk5pY-8" value="电脑A" style="text;html=1;align=center;verticalAlign=middle;resizable=0;points=[];autosize=1;strokeColor=none;fillColor=none;" vertex="1" parent="1">
          <mxGeometry x="55" y="140" width="60" height="30" as="geometry" />
        </mxCell>
        <mxCell id="vKyVgOmEa2FZxJtHk5pY-9" value="电脑B" style="text;html=1;align=center;verticalAlign=middle;resizable=0;points=[];autosize=1;strokeColor=none;fillColor=none;" vertex="1" parent="1">
          <mxGeometry x="50" y="370" width="60" height="30" as="geometry" />
        </mxCell>
        <mxCell id="vKyVgOmEa2FZxJtHk5pY-10" value="电脑C" style="text;html=1;align=center;verticalAlign=middle;resizable=0;points=[];autosize=1;strokeColor=none;fillColor=none;" vertex="1" parent="1">
          <mxGeometry x="730" y="140" width="60" height="30" as="geometry" />
        </mxCell>
        <mxCell id="vKyVgOmEa2FZxJtHk5pY-11" value="电脑D" style="text;html=1;align=center;verticalAlign=middle;resizable=0;points=[];autosize=1;strokeColor=none;fillColor=none;" vertex="1" parent="1">
          <mxGeometry x="730" y="377.5" width="60" height="30" as="geometry" />
        </mxCell>
        <mxCell id="vKyVgOmEa2FZxJtHk5pY-12" value="" style="shape=mxgraph.cisco.switches.mgx_8000_multiservice_switch;sketch=0;html=1;pointerEvents=1;dashed=0;fillColor=#036897;strokeColor=#ffffff;strokeWidth=2;verticalLabelPosition=bottom;verticalAlign=top;align=center;outlineConnect=0;" vertex="1" parent="1">
          <mxGeometry x="200" y="240" width="78" height="78" as="geometry" />
        </mxCell>
        <mxCell id="vKyVgOmEa2FZxJtHk5pY-13" value="" style="shape=mxgraph.cisco.switches.mgx_8000_multiservice_switch;sketch=0;html=1;pointerEvents=1;dashed=0;fillColor=#036897;strokeColor=#ffffff;strokeWidth=2;verticalLabelPosition=bottom;verticalAlign=top;align=center;outlineConnect=0;" vertex="1" parent="1">
          <mxGeometry x="600" y="240" width="78" height="78" as="geometry" />
        </mxCell>
        <mxCell id="vKyVgOmEa2FZxJtHk5pY-14" value="" style="shape=mxgraph.cisco.routers.ip_telephony_router;sketch=0;html=1;pointerEvents=1;dashed=0;fillColor=#036897;strokeColor=#ffffff;strokeWidth=2;verticalLabelPosition=bottom;verticalAlign=top;align=center;outlineConnect=0;" vertex="1" parent="1">
          <mxGeometry x="400" y="245" width="78" height="69" as="geometry" />
        </mxCell>
        <mxCell id="vKyVgOmEa2FZxJtHk5pY-19" value="" style="endArrow=classic;html=1;rounded=0;" edge="1" parent="1" target="vKyVgOmEa2FZxJtHk5pY-12">
          <mxGeometry width="50" height="50" relative="1" as="geometry">
            <mxPoint x="120" y="160" as="sourcePoint" />
            <mxPoint x="250" y="160" as="targetPoint" />
          </mxGeometry>
        </mxCell>
        <mxCell id="vKyVgOmEa2FZxJtHk5pY-21" value="" style="endArrow=none;html=1;rounded=0;entryX=0;entryY=0.5;entryDx=0;entryDy=0;entryPerimeter=0;" edge="1" parent="1" target="vKyVgOmEa2FZxJtHk5pY-14">
          <mxGeometry width="50" height="50" relative="1" as="geometry">
            <mxPoint x="278" y="280" as="sourcePoint" />
            <mxPoint x="328" y="230" as="targetPoint" />
          </mxGeometry>
        </mxCell>
        <mxCell id="vKyVgOmEa2FZxJtHk5pY-22" value="" style="endArrow=none;html=1;rounded=0;entryX=0;entryY=0.5;entryDx=0;entryDy=0;entryPerimeter=0;" edge="1" parent="1" target="vKyVgOmEa2FZxJtHk5pY-13">
          <mxGeometry width="50" height="50" relative="1" as="geometry">
            <mxPoint x="478" y="280" as="sourcePoint" />
            <mxPoint x="528" y="230" as="targetPoint" />
          </mxGeometry>
        </mxCell>
        <mxCell id="vKyVgOmEa2FZxJtHk5pY-24" value="" style="endArrow=classic;html=1;rounded=0;" edge="1" parent="1">
          <mxGeometry width="50" height="50" relative="1" as="geometry">
            <mxPoint x="670" y="245" as="sourcePoint" />
            <mxPoint x="720" y="195" as="targetPoint" />
          </mxGeometry>
        </mxCell>
        <mxCell id="vKyVgOmEa2FZxJtHk5pY-25" value="" style="endArrow=classic;html=1;rounded=0;" edge="1" parent="1">
          <mxGeometry width="50" height="50" relative="1" as="geometry">
            <mxPoint x="678" y="304.5" as="sourcePoint" />
            <mxPoint x="720" y="360" as="targetPoint" />
          </mxGeometry>
        </mxCell>
        <mxCell id="vKyVgOmEa2FZxJtHk5pY-26" value="" style="endArrow=classic;html=1;rounded=0;" edge="1" parent="1">
          <mxGeometry width="50" height="50" relative="1" as="geometry">
            <mxPoint x="200" y="304.5" as="sourcePoint" />
            <mxPoint x="130" y="360" as="targetPoint" />
          </mxGeometry>
        </mxCell>
        <mxCell id="vKyVgOmEa2FZxJtHk5pY-27" value="交换机A" style="text;html=1;align=center;verticalAlign=middle;resizable=0;points=[];autosize=1;strokeColor=none;fillColor=none;" vertex="1" parent="1">
          <mxGeometry x="204" y="200" width="70" height="30" as="geometry" />
        </mxCell>
        <mxCell id="vKyVgOmEa2FZxJtHk5pY-28" value="交换机B" style="text;html=1;align=center;verticalAlign=middle;resizable=0;points=[];autosize=1;strokeColor=none;fillColor=none;" vertex="1" parent="1">
          <mxGeometry x="590" y="200" width="70" height="30" as="geometry" />
        </mxCell>
        <mxCell id="vKyVgOmEa2FZxJtHk5pY-29" value="路由器A" style="text;html=1;align=center;verticalAlign=middle;resizable=0;points=[];autosize=1;strokeColor=none;fillColor=none;" vertex="1" parent="1">
          <mxGeometry x="404" y="200" width="70" height="30" as="geometry" />
        </mxCell>
      </root>
    </mxGraphModel>
  </diagram>
</mxfile>
